<?xml version="1.0" encoding="UTF-8" standalone="no"?>
<!DOCTYPE svg PUBLIC "-//W3C//DTD SVG 1.1//EN" "http://www.w3.org/Graphics/SVG/1.1/DTD/svg11.dtd">
<svg version="1.1" xmlns="http://www.w3.org/2000/svg" xmlns:xlink="http://www.w3.org/1999/xlink" preserveAspectRatio="xMidYMid meet" viewBox="0 0 26 32" width="26" height="32"><defs><path d="M10.55 1.94L15.92 1.94L15.92 2.84L17.86 2.84C17.86 2.23 17.86 1.88 17.86 1.81C17.86 0.81 17.05 0 16.05 0C15.49 0 10.99 0 10.42 0C9.42 0 8.61 0.81 8.61 1.81C8.61 1.88 8.61 2.23 8.61 2.84L10.55 2.84L10.55 1.94Z" id="bwB1Zdc9J"></path><path d="M25.06 5.63C24.89 5.12 24.42 4.78 23.89 4.78C21.76 4.78 4.71 4.78 2.58 4.78C2.05 4.78 1.58 5.12 1.41 5.63C1.35 5.82 0.84 7.35 0.77 7.54C0.65 7.91 0.81 8.28 1.11 8.47C1.23 8.55 1.38 8.59 1.53 8.59C3.87 8.59 22.6 8.59 24.94 8.59C25.1 8.59 25.24 8.55 25.36 8.47C25.66 8.28 25.82 7.91 25.7 7.54C25.57 7.16 25.13 5.82 25.06 5.63Z" id="g2O2eeZ2P5"></path><path d="M4.13 10.53C3.63 10.53 3.24 10.96 3.28 11.46C3.43 13.34 4.65 28.4 4.8 30.29C4.89 31.34 5.76 32.15 6.82 32.15C8.1 32.15 18.37 32.15 19.66 32.15C20.71 32.15 21.59 31.34 21.67 30.29C21.82 28.4 23.04 13.34 23.2 11.46C23.24 10.96 22.84 10.53 22.34 10.53C18.7 10.53 5.95 10.53 4.13 10.53ZM8.48 30.14C7.97 30.14 7.54 29.74 7.51 29.23C7.42 27.68 6.65 15.32 6.56 13.77C6.52 13.24 6.93 12.78 7.47 12.74C8 12.71 8.46 13.12 8.49 13.65C8.59 15.2 9.35 27.56 9.45 29.11C9.48 29.64 9.07 30.1 8.54 30.14C8.52 30.14 8.5 30.14 8.48 30.14ZM14.22 29.17C14.22 29.7 13.78 30.14 13.25 30.14C12.71 30.14 12.28 29.7 12.28 29.17C12.28 27.62 12.28 15.26 12.28 13.71C12.28 13.18 12.71 12.74 13.25 12.74C13.78 12.74 14.22 13.18 14.22 13.71C14.22 16.8 14.22 26.08 14.22 29.17ZM19 29.23C18.97 29.74 18.55 30.14 18.04 30.14C18.02 30.14 18 30.14 17.98 30.14C17.44 30.11 17.04 29.65 17.07 29.11C17.16 27.57 17.89 15.2 17.98 13.65C18.01 13.12 18.47 12.71 19 12.74C19.54 12.77 19.95 13.23 19.92 13.77C19.73 16.86 19.1 27.68 19 29.23Z" id="a4MqugdvpP"></path></defs><g><g><g><use xlink:href="#bwB1Zdc9J" opacity="1" fill="#ff1744" fill-opacity="1"></use><g><use xlink:href="#bwB1Zdc9J" opacity="1" fill-opacity="0" stroke="#000000" stroke-width="1" stroke-opacity="0"></use></g></g><g><use xlink:href="#g2O2eeZ2P5" opacity="1" fill="#ff1744" fill-opacity="1"></use><g><use xlink:href="#g2O2eeZ2P5" opacity="1" fill-opacity="0" stroke="#000000" stroke-width="1" stroke-opacity="0"></use></g></g><g><use xlink:href="#a4MqugdvpP" opacity="1" fill="#ff1744" fill-opacity="1"></use><g><use xlink:href="#a4MqugdvpP" opacity="1" fill-opacity="0" stroke="#000000" stroke-width="1" stroke-opacity="0"></use></g></g></g></g></svg>